<svg width="330" height="64" viewBox="0 0 330 64" fill="none" xmlns="http://www.w3.org/2000/svg">
<path d="M23.1287 0C24.6413 0 26.154 0 27.7125 0C27.7125 4.48087 27.7125 8.96173 27.7125 13.5784C29.2251 13.5784 30.7377 13.5784 32.2962 13.5784C32.2962 16.6037 32.2962 19.629 32.2962 22.7459C33.8089 22.7459 35.3215 22.7459 36.88 22.7459C36.88 25.7998 36.88 28.8536 36.88 32C38.3641 32 39.8482 32 41.3773 32C41.3773 28.9462 41.3773 25.8923 41.3773 22.7459C42.947 22.7459 44.5168 22.7459 46.1341 22.7459C46.1341 25.7998 46.1341 28.8536 46.1341 32C47.5896 32 49.0452 32 50.5449 32C50.5449 38.0221 50.5449 44.0441 50.5449 50.2486C49.0893 50.2486 47.6337 50.2486 46.1341 50.2486C46.1341 53.2739 46.1341 56.2992 46.1341 59.4162C44.5929 59.4162 43.0517 59.4162 41.4638 59.4162C41.4638 60.9289 41.4638 62.4415 41.4638 64C30.9038 64 20.3438 64 9.4638 64C9.4638 62.4874 9.4638 60.9747 9.4638 59.4162C7.92261 59.4162 6.38142 59.4162 4.79353 59.4162C4.79353 56.3909 4.79353 53.3656 4.79353 50.2486C3.30942 50.2486 1.82532 50.2486 0.296234 50.2486C0.296234 45.7107 0.296234 41.1728 0.296234 36.4973C1.78034 36.4973 3.26445 36.4973 4.79353 36.4973C4.79353 31.9594 4.79353 27.4214 4.79353 22.7459C6.3918 22.7459 7.99007 22.7459 9.63678 22.7459C9.63678 25.7998 9.63678 28.8536 9.63678 32C11.0923 32 12.5479 32 14.0476 32C14.0476 27.4621 14.0476 22.9241 14.0476 18.2486C15.5317 18.2486 17.0158 18.2486 18.5449 18.2486C18.5449 13.7107 18.5449 9.17276 18.5449 4.4973C20.0575 4.4973 21.5702 4.4973 23.1287 4.4973C23.1287 3.01319 23.1287 1.52908 23.1287 0Z" fill="#FD4D13"/>
<path d="M23.3016 18.1622C24.7857 18.1622 26.2699 18.1622 27.7989 18.1622C27.7989 21.1589 27.7989 24.1557 27.7989 27.2432C29.226 27.2432 30.653 27.2432 32.1233 27.2432C32.1233 30.2971 32.1233 33.3509 32.1233 36.4973C35.1486 36.4973 38.1739 36.4973 41.2908 36.4973C41.2908 42.5194 41.2908 48.5414 41.2908 54.7459C39.8353 54.7459 38.3797 54.7459 36.88 54.7459C36.88 56.2871 36.88 57.8283 36.88 59.4162C34.0256 59.4795 31.1746 59.5152 28.3196 59.5115C27.8175 59.5109 27.3154 59.5109 26.8133 59.5108C25.8707 59.5105 24.928 59.5098 23.9854 59.5089C22.9088 59.508 21.8322 59.5075 20.7556 59.5071C18.5484 59.5062 16.3412 59.5046 14.1341 59.5027C14.1341 57.9615 14.1341 56.4203 14.1341 54.8324C12.5929 54.8324 11.0517 54.8324 9.4638 54.8324C9.4638 50.2945 9.4638 45.7565 9.4638 41.0811C11.005 41.0811 12.5462 41.0811 14.1341 41.0811C14.1341 39.5399 14.1341 37.9987 14.1341 36.4108C15.6182 36.4108 17.1023 36.4108 18.6314 36.4108C18.6314 33.4141 18.6314 30.4173 18.6314 27.3297C20.1726 27.3297 21.7137 27.3297 23.3016 27.3297C23.3016 24.3044 23.3016 21.2791 23.3016 18.1622Z" fill="#FED117"/>
<path d="M23.3016 18.1622C24.7857 18.1622 26.2699 18.1622 27.7989 18.1622C27.7989 21.1589 27.7989 24.1557 27.7989 27.2432C29.226 27.2432 30.653 27.2432 32.1233 27.2432C32.1233 30.2971 32.1233 33.3509 32.1233 36.4973C35.1486 36.4973 38.1739 36.4973 41.2908 36.4973C41.2908 42.5194 41.2908 48.5414 41.2908 54.7459C39.8353 54.7459 38.3797 54.7459 36.88 54.7459C36.88 51.6921 36.88 48.6383 36.88 45.4919C35.4244 45.4919 33.9689 45.4919 32.4692 45.4919C32.4692 44.0078 32.4692 42.5237 32.4692 40.9946C30.928 40.9946 29.3868 40.9946 27.7989 40.9946C27.7989 37.9693 27.7989 34.944 27.7989 31.827C26.3148 31.827 24.8307 31.827 23.3016 31.827C23.3016 34.9094 23.3016 37.9918 23.3016 41.1676C21.7605 41.1676 20.2193 41.1676 18.6314 41.1676C18.6314 42.6517 18.6314 44.1358 18.6314 45.6649C17.1473 45.6649 15.6632 45.6649 14.1341 45.6649C14.1341 48.6902 14.1341 51.7155 14.1341 54.8324C12.5929 54.8324 11.0517 54.8324 9.4638 54.8324C9.4638 50.2945 9.4638 45.7565 9.4638 41.0811C11.005 41.0811 12.5462 41.0811 14.1341 41.0811C14.1341 39.5399 14.1341 37.9987 14.1341 36.4108C15.6182 36.4108 17.1023 36.4108 18.6314 36.4108C18.6314 33.4141 18.6314 30.4173 18.6314 27.3297C20.1726 27.3297 21.7137 27.3297 23.3016 27.3297C23.3016 24.3044 23.3016 21.2791 23.3016 18.1622Z" fill="#FE9212"/>
<path d="M36.88 9.25405C38.3927 9.25405 39.9053 9.25405 41.4638 9.25405C41.4638 12.2223 41.4638 15.1905 41.4638 18.2486C39.9512 18.2486 38.4385 18.2486 36.88 18.2486C36.88 15.2804 36.88 12.3122 36.88 9.25405Z" fill="#FB4D15"/>
<path d="M14.1341 54.8324C15.6467 54.8324 17.1594 54.8324 18.7179 54.8324C18.7179 56.3736 18.7179 57.9148 18.7179 59.5027C17.2052 59.5027 15.6926 59.5027 14.1341 59.5027C14.1341 57.9615 14.1341 56.4203 14.1341 54.8324Z" fill="#FD9211"/>
<path d="M32.4692 54.7459C33.9248 54.7459 35.3803 54.7459 36.88 54.7459C36.88 56.2871 36.88 57.8283 36.88 59.4162C35.4244 59.4162 33.9689 59.4162 32.4692 59.4162C32.4692 57.875 32.4692 56.3338 32.4692 54.7459Z" fill="#FD9212"/>
<path d="M9.4638 59.4162C9.52088 59.4162 9.57796 59.4162 9.63678 59.4162C9.63678 60.8718 9.63678 62.3274 9.63678 63.827C20.1112 63.827 30.5855 63.827 41.3773 63.827C41.3773 62.3715 41.3773 60.9159 41.3773 59.4162C41.4059 59.4162 41.4344 59.4162 41.4638 59.4162C41.4638 60.9289 41.4638 62.4415 41.4638 64C30.9038 64 20.3438 64 9.4638 64C9.4638 62.4874 9.4638 60.9747 9.4638 59.4162Z" fill="#CE431D"/>
<path d="M23.3016 31.827C24.7857 31.827 26.2699 31.827 27.7989 31.827C27.7989 34.8523 27.7989 37.8776 27.7989 40.9946C29.3401 40.9946 30.8813 40.9946 32.4692 40.9946C32.4407 42.4787 32.4121 43.9628 32.3827 45.4919C32.3542 45.4919 32.3256 45.4919 32.2962 45.4919C32.2962 44.0649 32.2962 42.6378 32.2962 41.1676C31.9726 41.1686 31.6489 41.1696 31.3155 41.1706C31.0035 41.1713 30.6915 41.1718 30.3795 41.1723C30.162 41.1728 29.9445 41.1733 29.7269 41.1741C29.415 41.1751 29.1031 41.1756 28.7912 41.176C28.6443 41.1767 28.6443 41.1767 28.4944 41.1774C28.3594 41.1774 28.3594 41.1774 28.2216 41.1774C28.1419 41.1776 28.0622 41.1778 27.9801 41.178C27.7989 41.1676 27.7989 41.1676 27.7125 41.0811C27.7042 40.9618 27.7019 40.8422 27.7021 40.7226C27.7019 40.6068 27.7019 40.6068 27.7017 40.4885C27.7022 40.3604 27.7022 40.3604 27.7026 40.2297C27.7026 40.1403 27.7026 40.0508 27.7026 39.9587C27.7027 39.6615 27.7033 39.3644 27.704 39.0672C27.7042 38.8618 27.7043 38.6564 27.7044 38.451C27.7047 37.9091 27.7056 37.3673 27.7065 36.8254C27.7076 36.1759 27.708 35.5264 27.7085 34.8769C27.7093 33.8891 27.711 32.9013 27.7125 31.9135C26.314 31.9135 24.9155 31.9135 23.4746 31.9135C23.4746 34.9959 23.4746 38.0783 23.4746 41.2541C21.9334 41.2541 20.3922 41.2541 18.8043 41.2541C18.8043 42.7096 18.8043 44.1652 18.8043 45.6649C18.7758 45.6649 18.7473 45.6649 18.7179 45.6649C18.7179 44.1808 18.7179 42.6967 18.7179 41.1676C20.2305 41.1676 21.7432 41.1676 23.3016 41.1676C23.3016 38.0852 23.3016 35.0028 23.3016 31.827Z" fill="#FED725"/>
<path d="M9.37732 41.0811C9.40586 41.0811 9.4344 41.0811 9.4638 41.0811C9.4638 45.619 9.4638 50.157 9.4638 54.8324C11.005 54.8324 12.5462 54.8324 14.1341 54.8324C14.1341 56.3736 14.1341 57.9148 14.1341 59.5027C20.1847 59.5027 26.2353 59.5027 32.4692 59.5027C32.4692 59.5312 32.4692 59.5598 32.4692 59.5892C30.0688 59.5912 27.6684 59.5927 25.268 59.5937C24.1536 59.5941 23.0391 59.5947 21.9247 59.5957C20.9537 59.5966 19.9827 59.5971 19.0117 59.5973C18.4973 59.5974 17.9828 59.5977 17.4683 59.5983C16.9847 59.5989 16.5011 59.5991 16.0175 59.599C15.8394 59.599 15.6613 59.5992 15.4833 59.5995C15.2413 59.5999 14.9993 59.5998 14.7573 59.5996C14.6502 59.6 14.6502 59.6 14.5409 59.6004C14.0575 59.5991 14.0575 59.5991 13.9611 59.5027C13.953 59.362 13.9509 59.221 13.9513 59.08C13.9513 58.99 13.9513 58.9 13.9513 58.8072C13.9517 58.7093 13.9522 58.6114 13.9527 58.5105C13.9528 58.4108 13.9529 58.3111 13.953 58.2084C13.9535 57.8885 13.9546 57.5686 13.9557 57.2486C13.9561 57.0324 13.9565 56.8161 13.9569 56.5998C13.9578 56.0684 13.9593 55.5369 13.9611 55.0054C13.9049 55.0056 13.8488 55.0058 13.7909 55.006C13.2088 55.0079 12.6266 55.0092 12.0444 55.0102C11.8269 55.0106 11.6093 55.0112 11.3918 55.0119C11.0799 55.013 10.7679 55.0135 10.456 55.0139C10.3091 55.0145 10.3091 55.0145 10.1593 55.0152C10.0693 55.0152 9.97922 55.0152 9.88646 55.0152C9.7669 55.0155 9.76691 55.0155 9.64494 55.0158C9.4638 55.0054 9.4638 55.0054 9.37732 54.9189C9.36894 54.7405 9.36678 54.5618 9.36692 54.3832C9.36684 54.3266 9.36677 54.27 9.36669 54.2117C9.36655 54.0208 9.36703 53.8298 9.3675 53.6388C9.36752 53.5025 9.36751 53.3661 9.36746 53.2298C9.36743 52.8585 9.36794 52.4872 9.36855 52.1159C9.36909 51.7283 9.36914 51.3407 9.36924 50.9531C9.36951 50.2186 9.37022 49.4841 9.37109 48.7496C9.37205 47.9136 9.37253 47.0776 9.37296 46.2416C9.37387 44.5214 9.37539 42.8013 9.37732 41.0811Z" fill="#DF3C01"/>
<path d="M0.296234 36.4973C1.78034 36.4973 3.26445 36.4973 4.79353 36.4973C4.79353 36.5544 4.79353 36.6115 4.79353 36.6703C3.3665 36.6703 1.93948 36.6703 0.469207 36.6703C0.521617 37.9705 0.521617 37.9705 0.64218 39.2649C0.61364 39.3219 0.585099 39.379 0.555694 39.4378C0.547667 39.5792 0.545149 39.7209 0.545293 39.8625C0.545174 39.9522 0.545055 40.042 0.544933 40.1344C0.545244 40.2333 0.545555 40.3321 0.545875 40.434C0.545863 40.5378 0.54585 40.6416 0.545837 40.7485C0.545887 41.0335 0.546321 41.3185 0.546924 41.6035C0.547464 41.9012 0.547516 42.1988 0.547618 42.4965C0.547888 43.0604 0.548598 43.6243 0.549465 44.1882C0.550431 44.8301 0.550907 45.472 0.551341 46.1139C0.552246 47.4345 0.553832 48.7551 0.555694 50.0757C2.65342 50.1185 2.65342 50.1185 4.79353 50.1622C4.79353 50.1907 4.79353 50.2192 4.79353 50.2486C3.30942 50.2486 1.82532 50.2486 0.296234 50.2486C0.296234 45.7107 0.296234 41.1728 0.296234 36.4973Z" fill="#C93A14"/>
<path d="M0.296234 36.4973C1.78034 36.4973 3.26445 36.4973 4.79353 36.4973C4.79353 36.5544 4.79353 36.6115 4.79353 36.6703C3.3665 36.6703 1.93948 36.6703 0.469207 36.6703C0.469207 37.4409 0.469207 38.2115 0.469207 39.0054C0.440667 39.0054 0.412126 39.0054 0.382721 39.0054C0.35418 38.1777 0.32564 37.3501 0.296234 36.4973Z" fill="#D74721"/>
<path d="M300.024 11.8401H329.704V19.6801H319.064V52.1601H310.664V19.6801H300.024V11.8401Z" fill="white"/>
<path d="M268.686 52.1601V44.8801H277.086V19.1201H268.686V11.8401H293.886V19.1201H285.486V44.8801H293.886V52.1601H268.686Z" fill="white"/>
<path d="M242.948 11.8401V27.6321H247.204L253.924 11.8401H263.052L254.652 31.3281L263.388 52.1601H254.148L247.204 35.3601H242.948V52.1601H234.548V11.8401H242.948Z" fill="white"/>
<path d="M209.369 11.8401V27.2961H218.889V11.8401H227.289V52.1601H218.889V35.1361H209.369V52.1601H200.969V11.8401H209.369Z" fill="white"/>
<path d="M180.831 11.28C182.922 11.28 184.826 11.5787 186.543 12.176C188.261 12.7734 189.735 13.632 190.967 14.752C192.199 15.8347 193.151 17.16 193.823 18.728C194.495 20.2587 194.831 21.976 194.831 23.88H186.431C186.431 22.312 185.927 21.08 184.919 20.184C183.911 19.288 182.549 18.84 180.831 18.84C179.077 18.84 177.677 19.288 176.631 20.184C175.623 21.08 175.119 22.312 175.119 23.88V40.12C175.119 41.688 175.605 42.92 176.575 43.816C177.583 44.712 178.983 45.16 180.775 45.16C182.53 45.16 183.911 44.6934 184.919 43.76C185.927 42.8267 186.431 41.6134 186.431 40.12H194.831C194.831 42.024 194.495 43.76 193.823 45.328C193.151 46.8587 192.199 48.184 190.967 49.304C189.735 50.3867 188.261 51.2267 186.543 51.824C184.826 52.4214 182.903 52.72 180.775 52.72C178.647 52.72 176.725 52.4214 175.007 51.824C173.29 51.2267 171.815 50.3867 170.583 49.304C169.351 48.184 168.399 46.8587 167.727 45.328C167.055 43.76 166.719 42.024 166.719 40.12V23.88C166.719 21.976 167.055 20.2587 167.727 18.728C168.399 17.16 169.351 15.8347 170.583 14.752C171.815 13.632 173.29 12.7734 175.007 12.176C176.762 11.5787 178.703 11.28 180.831 11.28Z" fill="white"/>
<path d="M133.421 11.8401H143.613L152.573 38.5521C152.76 39.0748 152.909 39.7094 153.021 40.4561C153.133 41.1654 153.226 41.8374 153.301 42.4721C153.376 43.2561 153.45 44.0588 153.525 44.8801H154.309C154.309 44.8801 154.253 44.5441 154.141 43.8721C154.066 43.2001 153.973 42.3601 153.861 41.3521C153.749 40.3441 153.637 39.2614 153.525 38.1041C153.413 36.9094 153.357 35.8268 153.357 34.8561V11.8401H160.525V52.1601H150.333L141.541 25.4481C141.354 24.8134 141.186 24.1414 141.037 23.4321C140.888 22.6854 140.776 21.9948 140.701 21.3601C140.626 20.6134 140.57 19.8668 140.533 19.1201H139.749C139.898 20.2401 140.048 21.3788 140.197 22.5361C140.272 23.5068 140.346 24.5708 140.421 25.7281C140.533 26.8854 140.589 28.0054 140.589 29.0881V52.1601H133.421V11.8401Z" fill="white"/>
<path d="M101.075 52.1601V11.8401H126.555V19.1201H109.475V27.8561H124.595V35.1361H109.475V44.8801H126.555V52.1601H101.075Z" fill="white"/>
<path d="M66.5449 52.1601V11.8401H80.0409C82.1316 11.8401 84.0169 12.0828 85.6969 12.5681C87.3769 13.0534 88.7956 13.7441 89.9529 14.6401C91.1476 15.5361 92.0622 16.6188 92.6969 17.8881C93.3316 19.1574 93.6489 20.5761 93.6489 22.1441C93.6489 24.6454 92.9396 26.6614 91.5209 28.1921C90.1396 29.7228 88.2169 30.6001 85.7529 30.8241V31.4401C88.4409 31.6268 90.5502 32.5228 92.0809 34.1281C93.6116 35.7334 94.3769 37.8428 94.3769 40.4561C94.3769 42.2481 94.0409 43.8721 93.3689 45.3281C92.7342 46.7468 91.8009 47.9788 90.5689 49.0241C89.3742 50.0321 87.8996 50.8161 86.1449 51.3761C84.4276 51.8988 82.5049 52.1601 80.3769 52.1601H66.5449ZM74.6649 34.6321V45.4401H80.0409C81.9076 45.4401 83.3449 44.9734 84.3529 44.0401C85.3982 43.1068 85.9209 41.7814 85.9209 40.0641C85.9209 38.3468 85.3982 37.0214 84.3529 36.0881C83.3449 35.1174 81.9076 34.6321 80.0409 34.6321H74.6649ZM74.6649 18.5601V27.9121H79.9289C81.5342 27.9121 82.8036 27.4828 83.7369 26.6241C84.7076 25.7654 85.1929 24.6268 85.1929 23.2081C85.1929 21.7894 84.7262 20.6694 83.7929 19.8481C82.8596 18.9894 81.5716 18.5601 79.9289 18.5601H74.6649Z" fill="white"/>
</svg>
