<svg xmlns="http://www.w3.org/2000/svg" width="20" height="20" viewBox="0 0 20 20" fill="none">
  <path d="M1.25006 7.25C1.25006 5.1498 1.25006 4.0997 1.65879 3.29754C2.01831 2.59193 2.59199 2.01825 3.2976 1.65873C4.09977 1.25 5.14986 1.25 7.25006 1.25H12.7501C14.8503 1.25 15.9004 1.25 16.7025 1.65873C17.4081 2.01825 17.9818 2.59193 18.3413 3.29754C18.7501 4.0997 18.7501 5.1498 18.7501 7.25V12.75C18.7501 14.8502 18.7501 15.9003 18.3413 16.7025C17.9818 17.4081 17.4081 17.9817 16.7025 18.3413C15.9004 18.75 14.8503 18.75 12.7501 18.75H7.25006C5.14986 18.75 4.09977 18.75 3.2976 18.3413C2.59199 17.9817 2.01831 17.4081 1.65879 16.7025C1.25006 15.9003 1.25006 14.8502 1.25006 12.75V7.25Z" fill="url(#paint0_linear_14609_135)"/>
  <path d="M15.1721 6.26667C14.226 5.46667 13.0907 5.06667 11.8923 5L11.703 5.2C12.7753 5.46667 13.7214 6 14.6044 6.73333C13.5322 6.13333 12.3338 5.73333 11.0723 5.6C10.6939 5.53333 10.3785 5.53333 10.0001 5.53333C9.62162 5.53333 9.30625 5.53333 8.92781 5.6C7.66635 5.73333 6.46795 6.13333 5.3957 6.73333C6.27873 6 7.22483 5.46667 8.29708 5.2L8.10786 5C6.90946 5.06667 5.77414 5.46667 4.82804 6.26667C3.7558 8.4 3.18813 10.8 3.12506 13.2667C4.07116 14.3333 5.3957 15 6.78332 15C6.78332 15 7.22483 14.4667 7.5402 14C6.72024 13.8 5.96336 13.3333 5.45878 12.6C5.90029 12.8667 6.3418 13.1333 6.78332 13.3333C7.35098 13.6 7.91864 13.7333 8.4863 13.8667C8.99089 13.9333 9.49547 14 10.0001 14C10.5046 14 11.0092 13.9333 11.5138 13.8667C12.0815 13.7333 12.6491 13.6 13.2168 13.3333C13.6583 13.1333 14.0998 12.8667 14.5413 12.6C14.0368 13.3333 13.2799 13.8 12.4599 14C12.7753 14.4667 13.2168 15 13.2168 15C14.6044 15 15.929 14.3333 16.8751 13.2667C16.812 10.8 16.2443 8.4 15.1721 6.26667ZM7.91864 12.0667C7.28791 12.0667 6.72024 11.4667 6.72024 10.7333C6.72024 10 7.28791 9.4 7.91864 9.4C8.54937 9.4 9.11703 10 9.11703 10.7333C9.11703 11.4667 8.54937 12.0667 7.91864 12.0667ZM12.0815 12.0667C11.4507 12.0667 10.8831 11.4667 10.8831 10.7333C10.8831 10 11.4507 9.4 12.0815 9.4C12.7122 9.4 13.2799 10 13.2799 10.7333C13.2799 11.4667 12.7122 12.0667 12.0815 12.0667Z" fill="white"/>
  <defs>
    <linearGradient id="paint0_linear_14609_135" x1="10.0001" y1="1.25" x2="10.0001" y2="18.75" gradientUnits="userSpaceOnUse">
      <stop stop-color="#687EC9"/>
      <stop offset="1" stop-color="#5971C3"/>
    </linearGradient>
  </defs>
</svg>