<svg xmlns="http://www.w3.org/2000/svg" width="18" height="18" viewBox="0 0 18 18" fill="none">
  <path d="M9.00006 0.25C4.16569 0.25 0.250061 4.16562 0.250061 9C0.250061 12.8719 2.75475 16.1422 6.23287 17.3016C6.67037 17.3781 6.83444 17.1156 6.83444 16.8859C6.83444 16.6781 6.8235 15.9891 6.8235 15.2563C4.62506 15.6609 4.05631 14.7203 3.88131 14.2281C3.78287 13.9766 3.35631 13.2 2.98444 12.9922C2.67819 12.8281 2.24069 12.4234 2.9735 12.4125C3.66256 12.4016 4.15475 13.0469 4.31881 13.3094C5.10631 14.6328 6.36412 14.2609 6.86725 14.0313C6.94381 13.4625 7.1735 13.0797 7.42506 12.8609C5.47819 12.6422 3.44381 11.8875 3.44381 8.54062C3.44381 7.58906 3.78287 6.80156 4.34069 6.18906C4.25319 5.97031 3.94694 5.07344 4.42819 3.87031C4.42819 3.87031 5.161 3.64063 6.83444 4.76719C7.53444 4.57031 8.27819 4.47187 9.02194 4.47187C9.76569 4.47187 10.5094 4.57031 11.2094 4.76719C12.8829 3.62969 13.6157 3.87031 13.6157 3.87031C14.0969 5.07344 13.7907 5.97031 13.7032 6.18906C14.261 6.80156 14.6001 7.57812 14.6001 8.54062C14.6001 11.8984 12.5547 12.6422 10.6079 12.8609C10.9251 13.1344 11.1985 13.6594 11.1985 14.4797C11.1985 15.65 11.1876 16.5906 11.1876 16.8859C11.1876 17.1156 11.3516 17.3891 11.7891 17.3016C13.5262 16.7152 15.0356 15.5988 16.1049 14.1096C17.1742 12.6204 17.7496 10.8333 17.7501 9C17.7501 4.16562 13.8344 0.25 9.00006 0.25Z" fill="black"/>
</svg>