<svg width="101" height="18" viewBox="0 0 101 18" fill="none" xmlns="http://www.w3.org/2000/svg">
<rect x="0.484497" y="12.2553" width="8.1242" height="8.1242" transform="rotate(-45 0.484497 12.2553)" fill="#1CE783"/>
<rect x="6.99512" y="5.74469" width="8.1242" height="8.1242" transform="rotate(-45 6.99512 5.74469)" fill="#1CE783"/>
<rect x="13.5057" y="12.2553" width="8.1242" height="8.1242" transform="rotate(-45 13.5057 12.2553)" fill="#1CE783"/>
<path d="M35.8104 14.6987C35.1241 14.6987 34.4991 14.6129 33.9353 14.4413C33.3716 14.2575 32.8875 14.0063 32.4831 13.6876C32.0787 13.3567 31.76 12.9584 31.5272 12.4927C31.2943 12.027 31.1595 11.5062 31.1227 10.9302H33.8802C33.9782 11.8493 34.64 12.3089 35.8655 12.3089C36.4783 12.3089 36.944 12.1802 37.2626 11.9229C37.5813 11.6532 37.7406 11.2978 37.7406 10.8567C37.7406 10.4645 37.6119 10.1275 37.3546 9.84559C37.1095 9.56372 36.7663 9.37376 36.3251 9.27572L34.928 8.96321C33.727 8.69359 32.814 8.21564 32.189 7.52934C31.5762 6.83079 31.2698 5.94228 31.2698 4.86381C31.2698 4.30007 31.374 3.78535 31.5823 3.31964C31.8029 2.85394 32.1093 2.45565 32.5015 2.12475C32.8936 1.79386 33.3655 1.5365 33.9169 1.35267C34.4807 1.16884 35.1118 1.07693 35.8104 1.07693C37.1217 1.07693 38.1695 1.40169 38.9539 2.05122C39.7505 2.70075 40.1917 3.60152 40.2774 4.75351H37.52C37.471 4.34909 37.2872 4.03658 36.9685 3.81598C36.6621 3.58313 36.2516 3.46671 35.7369 3.46671C35.1976 3.46671 34.7748 3.59539 34.4684 3.85275C34.1743 4.11011 34.0272 4.43488 34.0272 4.82705C34.0272 5.17019 34.1437 5.47045 34.3765 5.72781C34.6094 5.97292 34.9464 6.14449 35.3876 6.24253L36.8582 6.57343C38.047 6.84304 38.9477 7.33325 39.5605 8.04406C40.1855 8.74261 40.498 9.63725 40.498 10.728C40.498 11.3162 40.3877 11.8555 40.1672 12.3457C39.9466 12.8236 39.6279 13.2403 39.2112 13.5957C38.8068 13.9389 38.3166 14.2085 37.7406 14.4046C37.1646 14.6006 36.5212 14.6987 35.8104 14.6987Z" fill="white"/>
<path d="M45.1418 4.40424V6.15062H45.3256C45.4236 5.55011 45.6994 5.07828 46.1528 4.73513C46.6185 4.39198 47.2129 4.22041 47.936 4.22041C48.4752 4.22041 48.9593 4.31232 49.3882 4.49615C49.8171 4.67998 50.1848 4.94347 50.4912 5.28662C50.8098 5.62977 51.0488 6.04645 51.2081 6.53666C51.3797 7.02687 51.4655 7.57223 51.4655 8.17274V10.6544C51.4655 11.2795 51.3797 11.8432 51.2081 12.3457C51.0488 12.8359 50.8098 13.2587 50.4912 13.6141C50.1848 13.9572 49.8171 14.2269 49.3882 14.4229C48.9593 14.6068 48.4752 14.6987 47.936 14.6987C47.2129 14.6987 46.6185 14.5271 46.1528 14.184C45.6994 13.8408 45.4236 13.3629 45.3256 12.7501H45.1418C45.154 12.8481 45.1724 13.0687 45.1969 13.4119C45.2214 13.755 45.2337 14.1227 45.2337 14.5149V17.548H42.4762V4.40424H45.1418ZM45.2337 10.6544C45.2337 11.1324 45.3869 11.5246 45.6932 11.8309C45.9996 12.1373 46.4286 12.2905 46.98 12.2905C47.5315 12.2905 47.9543 12.1312 48.2485 11.8126C48.5548 11.4939 48.708 11.0772 48.708 10.5625V8.26466C48.708 7.74993 48.5487 7.34551 48.2301 7.05138C47.9237 6.75726 47.507 6.61019 46.98 6.61019C46.4531 6.61019 46.0303 6.76338 45.7116 7.06977C45.393 7.36389 45.2337 7.76219 45.2337 8.26466V10.6544Z" fill="white"/>
<path d="M53.7194 12.0148H57.3041V6.88594H54.179V4.40424H59.8777V12.0148H62.7271V14.5149H53.7194V12.0148ZM56.7526 1.73871C56.7526 1.34654 56.8751 1.03403 57.1203 0.80118C57.3776 0.56833 57.7146 0.451904 58.1313 0.451904H58.6828C59.0995 0.451904 59.4304 0.56833 59.6755 0.80118C59.9328 1.03403 60.0615 1.34654 60.0615 1.73871C60.0615 2.13088 59.9328 2.44339 59.6755 2.67624C59.4304 2.90909 59.0934 3.02552 58.6644 3.02552H58.1313C57.7146 3.02552 57.3776 2.90909 57.1203 2.67624C56.8751 2.44339 56.7526 2.13088 56.7526 1.73871Z" fill="white"/>
<path d="M64.4846 14.5149V4.40424H67.095V6.15062H67.2788C67.3646 5.53785 67.6342 5.06602 68.0877 4.73513C68.5411 4.39198 69.1355 4.22041 69.8708 4.22041C70.9003 4.22041 71.7091 4.55743 72.2974 5.23147C72.8979 5.90551 73.1982 6.82466 73.1982 7.98891V14.5149H70.4407V8.26466C70.4407 7.74993 70.2936 7.34551 69.9995 7.05138C69.7176 6.75726 69.3316 6.61019 68.8414 6.61019C68.3512 6.61019 67.959 6.75726 67.6649 7.05138C67.383 7.34551 67.2421 7.74993 67.2421 8.26466V14.5149H64.4846Z" fill="white"/>
<path d="M79.3254 2.54474H97.4514C98.9319 2.54474 100.132 3.74497 100.132 5.2254V12.7742C100.132 14.2548 98.932 15.4549 97.4514 15.4549H79.3254C77.8451 15.4547 76.6448 14.2546 76.6448 12.7742V5.2254C76.645 3.74509 77.8451 2.54493 79.3254 2.54474Z" stroke="white" stroke-width="0.765956"/>
<path d="M97.4517 8.99991C97.4517 9.72887 97.3135 10.349 97.0372 10.8604C96.763 11.3718 96.3887 11.7624 95.9143 12.0322C95.4421 12.2998 94.9112 12.4337 94.3215 12.4337C93.7274 12.4337 93.1943 12.2987 92.7221 12.0289C92.2499 11.7591 91.8767 11.3685 91.6026 10.8571C91.3284 10.3458 91.1913 9.7267 91.1913 8.99991C91.1913 8.27095 91.3284 7.65078 91.6026 7.13942C91.8767 6.62806 92.2499 6.23855 92.7221 5.9709C93.1943 5.70108 93.7274 5.56616 94.3215 5.56616C94.9112 5.56616 95.4421 5.70108 95.9143 5.9709C96.3887 6.23855 96.763 6.62806 97.0372 7.13942C97.3135 7.65078 97.4517 8.27095 97.4517 8.99991ZM96.0188 8.99991C96.0188 8.52771 95.9481 8.1295 95.8066 7.80528C95.6674 7.48105 95.4704 7.23516 95.2158 7.06761C94.9612 6.90006 94.6631 6.81628 94.3215 6.81628C93.9799 6.81628 93.6817 6.90006 93.4271 7.06761C93.1726 7.23516 92.9745 7.48105 92.8331 7.80528C92.6938 8.1295 92.6242 8.52771 92.6242 8.99991C92.6242 9.4721 92.6938 9.87031 92.8331 10.1945C92.9745 10.5188 93.1726 10.7647 93.4271 10.9322C93.6817 11.0998 93.9799 11.1835 94.3215 11.1835C94.6631 11.1835 94.9612 11.0998 95.2158 10.9322C95.4704 10.7647 95.6674 10.5188 95.8066 10.1945C95.9481 9.87031 96.0188 9.4721 96.0188 8.99991Z" fill="white"/>
<path d="M85.2769 12.3423V5.65755H87.9142C88.4191 5.65755 88.8499 5.74786 89.2068 5.92847C89.5658 6.1069 89.8389 6.36041 90.026 6.68898C90.2154 7.01539 90.31 7.39945 90.31 7.84118C90.31 8.28509 90.2143 8.66698 90.0228 8.98685C89.8313 9.30455 89.5538 9.54826 89.1905 9.71799C88.8292 9.88772 88.3919 9.97259 87.8783 9.97259H86.1125V8.83671H87.6498C87.9197 8.83671 88.1438 8.79972 88.3222 8.72573C88.5007 8.65175 88.6334 8.54077 88.7204 8.3928C88.8097 8.24483 88.8543 8.06096 88.8543 7.84118C88.8543 7.61923 88.8097 7.43209 88.7204 7.27977C88.6334 7.12745 88.4996 7.01212 88.319 6.93379C88.1405 6.85327 87.9153 6.81302 87.6433 6.81302H86.6902V12.3423H85.2769ZM88.8869 9.3002L90.5483 12.3423H88.9881L87.3626 9.3002H88.8869Z" fill="white"/>
<path d="M79.3258 12.3423V5.65755H81.9631C82.4701 5.65755 82.9021 5.75439 83.2589 5.94805C83.6158 6.13954 83.8878 6.4061 84.0749 6.74774C84.2642 7.08719 84.3589 7.47888 84.3589 7.92278C84.3589 8.36669 84.2631 8.75837 84.0717 9.09783C83.8802 9.43729 83.6027 9.70167 83.2393 9.89099C82.8781 10.0803 82.4407 10.175 81.9272 10.175H80.2462V9.04234H81.6987C81.9707 9.04234 82.1948 8.99556 82.3711 8.90199C82.5495 8.80624 82.6823 8.67459 82.7693 8.50704C82.8585 8.33731 82.9031 8.14256 82.9031 7.92278C82.9031 7.70083 82.8585 7.50716 82.7693 7.34179C82.6823 7.17423 82.5495 7.04476 82.3711 6.95337C82.1927 6.8598 81.9664 6.81302 81.6922 6.81302H80.7391V12.3423H79.3258Z" fill="white"/>
</svg>