<svg width="40" height="40" viewBox="0 0 40 40" fill="none" xmlns="http://www.w3.org/2000/svg">
<g filter="url(#filter0_ii_14609_519)">
<path d="M0 8C0 3.58172 3.58172 0 8 0H32C36.4183 0 40 3.58172 40 8V32C40 36.4183 36.4183 40 32 40H8C3.58172 40 0 36.4183 0 32V8Z" fill="#0C0E12"/>
<path d="M8 0.5H32C36.1421 0.5 39.5 3.85786 39.5 8V32C39.5 36.1421 36.1421 39.5 32 39.5H8C3.85786 39.5 0.5 36.1421 0.5 32V8C0.5 3.85786 3.85786 0.5 8 0.5Z" stroke="#373A41"/>
<path d="M17.8292 26.1426L18.3163 27.238C18.4611 27.564 18.6973 27.8411 18.9965 28.0355C19.2956 28.23 19.6447 28.3334 20.0015 28.3334C20.3582 28.3334 20.7073 28.23 21.0065 28.0355C21.3056 27.8411 21.5419 27.564 21.6866 27.238L22.1737 26.1426C22.3471 25.7539 22.6387 25.4299 23.007 25.2167C23.3777 25.0029 23.8065 24.9118 24.232 24.9565L25.4237 25.0834C25.7784 25.1209 26.1364 25.0547 26.4543 24.8928C26.7721 24.7309 27.0362 24.4803 27.2144 24.1713C27.3929 23.8625 27.4779 23.5086 27.4592 23.1524C27.4405 22.7963 27.3188 22.4532 27.1089 22.1648L26.4033 21.1954C26.1521 20.8476 26.0178 20.429 26.02 20C26.0199 19.5722 26.1554 19.1553 26.407 18.8093L27.1126 17.8398C27.3225 17.5515 27.4442 17.2084 27.4629 16.8522C27.4816 16.4961 27.3966 16.1421 27.2181 15.8334C27.0399 15.5244 26.7758 15.2738 26.458 15.1119C26.1401 14.95 25.7821 14.8838 25.4274 14.9213L24.2357 15.0482C23.8102 15.0929 23.3814 15.0018 23.0107 14.788C22.6417 14.5736 22.35 14.2478 22.1774 13.8574L21.6866 12.7621C21.5419 12.436 21.3056 12.1589 21.0065 11.9645C20.7073 11.7701 20.3582 11.6666 20.0015 11.6667C19.6447 11.6666 19.2956 11.7701 18.9965 11.9645C18.6973 12.1589 18.4611 12.436 18.3163 12.7621L17.8292 13.8574C17.6567 14.2478 17.365 14.5736 16.9959 14.788C16.6253 15.0018 16.1965 15.0929 15.7709 15.0482L14.5755 14.9213C14.2208 14.8838 13.8628 14.95 13.545 15.1119C13.2271 15.2738 12.9631 15.5244 12.7848 15.8334C12.6063 16.1421 12.5213 16.4961 12.54 16.8522C12.5588 17.2084 12.6805 17.5515 12.8904 17.8398L13.5959 18.8093C13.8475 19.1553 13.983 19.5722 13.9829 20C13.983 20.4279 13.8475 20.8447 13.5959 21.1908L12.8904 22.1602C12.6805 22.4486 12.5588 22.7916 12.54 23.1478C12.5213 23.504 12.6063 23.8579 12.7848 24.1667C12.9632 24.4755 13.2273 24.726 13.5451 24.8878C13.8629 25.0497 14.2208 25.116 14.5755 25.0787L15.7672 24.9519C16.1928 24.9072 16.6216 24.9983 16.9922 25.2121C17.3626 25.4259 17.6557 25.7517 17.8292 26.1426Z" stroke="#CECFD2" stroke-width="1.66667" stroke-linecap="round" stroke-linejoin="round"/>
<path d="M20 22.5C21.3807 22.5 22.5 21.3807 22.5 20C22.5 18.6193 21.3807 17.5 20 17.5C18.6193 17.5 17.5 18.6193 17.5 20C17.5 21.3807 18.6193 22.5 20 22.5Z" stroke="#CECFD2" stroke-width="1.66667" stroke-linecap="round" stroke-linejoin="round"/>
</g>
<defs>
<filter id="filter0_ii_14609_519" x="0" y="0" width="40" height="40" filterUnits="userSpaceOnUse" color-interpolation-filters="sRGB">
<feFlood flood-opacity="0" result="BackgroundImageFix"/>
<feBlend mode="normal" in="SourceGraphic" in2="BackgroundImageFix" result="shape"/>
<feColorMatrix in="SourceAlpha" type="matrix" values="0 0 0 0 0 0 0 0 0 0 0 0 0 0 0 0 0 0 127 0" result="hardAlpha"/>
<feOffset dy="-2"/>
<feComposite in2="hardAlpha" operator="arithmetic" k2="-1" k3="1"/>
<feColorMatrix type="matrix" values="0 0 0 0 0.0470588 0 0 0 0 0.054902 0 0 0 0 0.0705882 0 0 0 0.05 0"/>
<feBlend mode="normal" in2="shape" result="effect1_innerShadow_14609_519"/>
<feColorMatrix in="SourceAlpha" type="matrix" values="0 0 0 0 0 0 0 0 0 0 0 0 0 0 0 0 0 0 127 0" result="hardAlpha"/>
<feMorphology radius="1" operator="erode" in="SourceAlpha" result="effect2_innerShadow_14609_519"/>
<feOffset/>
<feComposite in2="hardAlpha" operator="arithmetic" k2="-1" k3="1"/>
<feColorMatrix type="matrix" values="0 0 0 0 0.0470588 0 0 0 0 0.054902 0 0 0 0 0.0705882 0 0 0 0.18 0"/>
<feBlend mode="normal" in2="effect1_innerShadow_14609_519" result="effect2_innerShadow_14609_519"/>
</filter>
</defs>
</svg>
